<svg version="1.1" xmlns="http://www.w3.org/2000/svg" xmlns:xlink="http://www.w3.org/1999/xlink" width="201.88139" height="228.84534" viewBox="0,0,201.88139,228.84534"><g transform="translate(-67.34774,-13.6203)"><g data-paper-data="{&quot;isPaintingLayer&quot;:true}" fill="none" fill-rule="nonzero" stroke-width="12.5" stroke-linejoin="miter" stroke-miterlimit="10" stroke-dasharray="" stroke-dashoffset="0" style="mix-blend-mode: normal"><path d="M236.38719,152.92087l-21.75544,14.65764l-22.01348,3.92068" data-paper-data="{&quot;index&quot;:null}" stroke="#000000" stroke-linecap="round"/><path d="M73.59774,19.8703l128.94347,173.8844" data-paper-data="{&quot;index&quot;:null}" stroke="#a56000" stroke-linecap="round"/><path d="M236.92785,154.97263l-24.60566,19.27307l-26.47175,4.02872" data-paper-data="{&quot;index&quot;:null}" stroke="#000000" stroke-linecap="round"/><path d="M189.14691,236.21564l18.06284,-4.63677l29.2144,-1.55545" data-paper-data="{&quot;index&quot;:null}" stroke="#000000" stroke-linecap="round"/><path d="M187.59517,231.6232l18.07393,-3.12938l31.22179,-0.04066" data-paper-data="{&quot;index&quot;:null}" stroke="#000000" stroke-linecap="round"/><path d="M237.47913,229.88023v-83" data-paper-data="{&quot;index&quot;:null}" stroke="#000000" stroke-linecap="round"/><path d="M237.97913,145.5469c-13.80712,0 -25,-11.19288 -25,-25c0,-13.80712 11.19288,-25 25,-25c13.80712,0 25,11.19288 25,25c0,13.80712 -11.19288,25 -25,25z" data-paper-data="{&quot;index&quot;:null}" stroke="#000000" stroke-linecap="butt"/></g></g></svg>