<svg version="1.1" xmlns="http://www.w3.org/2000/svg" xmlns:xlink="http://www.w3.org/1999/xlink" width="248.43744" height="153.16874" viewBox="0,0,248.43744,153.16874"><g transform="translate(-210.77087,-89.2969)"><g data-paper-data="{&quot;isPaintingLayer&quot;:true}" fill="none" fill-rule="nonzero" stroke-width="12.5" stroke-linejoin="miter" stroke-miterlimit="10" stroke-dasharray="" stroke-dashoffset="0" style="mix-blend-mode: normal"><path d="M277.38173,185.49919l-18.01348,-12.92068l-15.75544,-19.65764" data-paper-data="{&quot;index&quot;:null}" stroke="#000000" stroke-linecap="round"/><path d="M452.95831,99.3125l-194.18605,100" stroke="#a56000" stroke-linecap="round"/><path d="M275.14956,191.27442l-15.47175,-11.02872l-16.60566,-25.27307" data-paper-data="{&quot;index&quot;:null}" stroke="#000000" stroke-linecap="round"/><path d="M242.52087,146.88023v83" stroke="#000000" stroke-linecap="round"/><path d="M217.02087,120.5469c0,-13.80712 11.19288,-25 25,-25c13.80712,0 25,11.19288 25,25c0,13.80712 -11.19288,25 -25,25c-13.80712,0 -25,-11.19288 -25,-25z" stroke="#000000" stroke-linecap="butt"/><path d="M243.57586,230.02342l29.2144,1.55545l18.06284,4.63677" data-paper-data="{&quot;index&quot;:null}" stroke="#000000" stroke-linecap="round"/><path d="M243.10912,228.45316l31.22179,0.04066l18.07393,3.12938" data-paper-data="{&quot;index&quot;:null}" stroke="#000000" stroke-linecap="round"/></g></g></svg>