<svg version="1.1" xmlns="http://www.w3.org/2000/svg" xmlns:xlink="http://www.w3.org/1999/xlink" width="201.88139" height="228.84534" viewBox="0,0,201.88139,228.84534"><g transform="translate(-210.77087,-13.6203)"><g data-paper-data="{&quot;isPaintingLayer&quot;:true}" fill="none" fill-rule="nonzero" stroke-width="12.5" stroke-linejoin="miter" stroke-miterlimit="10" stroke-dasharray="" stroke-dashoffset="0" style="mix-blend-mode: normal"><path d="M287.38173,171.49919l-22.01348,-3.92068l-21.75544,-14.65764" data-paper-data="{&quot;index&quot;:null}" stroke="#000000" stroke-linecap="round"/><path d="M277.45879,193.7547l128.94347,-173.8844" stroke="#a56000" stroke-linecap="round"/><path d="M294.14956,178.27442l-26.47175,-4.02872l-24.60566,-19.27307" data-paper-data="{&quot;index&quot;:null}" stroke="#000000" stroke-linecap="round"/><path d="M242.52087,229.88023v-83" stroke="#000000" stroke-linecap="round"/><path d="M217.02087,120.5469c0,-13.80712 11.19288,-25 25,-25c13.80712,0 25,11.19288 25,25c0,13.80712 -11.19288,25 -25,25c-13.80712,0 -25,-11.19288 -25,-25z" stroke="#000000" stroke-linecap="butt"/><path d="M243.57586,230.02342l29.2144,1.55545l18.06284,4.63677" data-paper-data="{&quot;index&quot;:null}" stroke="#000000" stroke-linecap="round"/><path d="M243.10912,228.45316l31.22179,0.04066l18.07393,3.12938" data-paper-data="{&quot;index&quot;:null}" stroke="#000000" stroke-linecap="round"/></g></g></svg>