<svg version="1.1" xmlns="http://www.w3.org/2000/svg" xmlns:xlink="http://www.w3.org/1999/xlink" width="248.43744" height="153.16874" viewBox="0,0,248.43744,153.16874"><g transform="translate(-20.79169,-89.2969)"><g data-paper-data="{&quot;isPaintingLayer&quot;:true}" fill="none" fill-rule="nonzero" stroke-width="12.5" stroke-linejoin="miter" stroke-miterlimit="10" stroke-dasharray="" stroke-dashoffset="0" style="mix-blend-mode: normal"><path d="M236.38719,152.92087l-15.75544,19.65764l-18.01348,12.92068" data-paper-data="{&quot;index&quot;:null}" stroke="#000000" stroke-linecap="round"/><path d="M27.04169,99.3125l194.18605,100" data-paper-data="{&quot;index&quot;:null}" stroke="#a56000" stroke-linecap="round"/><path d="M236.92785,154.97263l-16.60566,25.27307l-15.47175,11.02872" data-paper-data="{&quot;index&quot;:null}" stroke="#000000" stroke-linecap="round"/><path d="M237.47913,146.88023v83" data-paper-data="{&quot;index&quot;:null}" stroke="#000000" stroke-linecap="round"/><path d="M237.97913,145.5469c-13.80712,0 -25,-11.19288 -25,-25c0,-13.80712 11.19288,-25 25,-25c13.80712,0 25,11.19288 25,25c0,13.80712 -11.19288,25 -25,25z" data-paper-data="{&quot;index&quot;:null}" stroke="#000000" stroke-linecap="butt"/><path d="M189.14691,236.21564l18.06284,-4.63677l29.2144,-1.55545" data-paper-data="{&quot;index&quot;:null}" stroke="#000000" stroke-linecap="round"/><path d="M187.59517,231.6232l18.07393,-3.12938l31.22179,-0.04066" data-paper-data="{&quot;index&quot;:null}" stroke="#000000" stroke-linecap="round"/></g></g></svg>